<?xml version="1.0" encoding="UTF-8"?>
<svg width="64px" height="64px" viewBox="0 0 64 64" version="1.1" xmlns="http://www.w3.org/2000/svg">
  <!-- Generator: Sketch 60.1 (88133) - https://sketch.com -->
  <title>Desktop/Icon/Billing</title>
  <desc>Created with Sketch.</desc>
  <g id="Desktop/Icon/Billing" stroke="none" stroke-width="1" fill="none" fill-rule="evenodd">
    <path
      d="M44,44 L44,44 C44,42.896 44.894,42 46,42 L54,42 C55.106,42 56,42.896 56,44 C56,45.104 55.106,46 54,46 L46,46 C44.894,46 44,45.104 44,44 L44,44 Z M7.998,28 L7.998,28 C7.998,26.896 8.892,26 9.998,26 L29.998,26 C31.104,26 31.998,26.896 31.998,28 C31.998,29.104 31.104,30 29.998,30 L9.998,30 C8.892,30 7.998,29.104 7.998,28 L7.998,28 Z M60,18 L4,18 C4,15.794 5.794,14 8,14 L56,14 C58.206,14 60,15.794 60,18 L60,18 Z M64,18 C64,13.582 60.418,10 56,10 L8,10 C3.582,10 0,13.582 0,18 L0,46 C0,50.418 3.582,54 8,54 L56,54 C60.418,54 64,50.418 64,46 L64,28 C64,26.896 63.106,26 62,26 C60.894,26 60,26.896 60,28 L60,46 C60,48.208 58.208,50 56,50 L8,50 C5.792,50 4,48.208 4,46 L4,22 L62,22 C63.106,22 64,21.104 64,20 L64,18 Z"
      id="Fill-1" fill="#002233"></path>
  </g>
</svg>
