<?xml version="1.0" encoding="UTF-8"?>
<svg xmlns:xlink="http://www.w3.org/1999/xlink" width="28px" height="22px" viewBox="0 0 28 22" version="1.1"
     xmlns="http://www.w3.org/2000/svg">
  <!-- Generator: Sketch 60.1 (88133) - https://sketch.com -->
  <title>Icon/Branded-Upload</title>
  <desc>Created with Sketch.</desc>
  <defs>
    <polygon id="path-1" points="0.0004 0.0002 28 0.0002 28 22.0002 0.0004 22.0002"></polygon>
  </defs>
  <g id="Icon/Branded-Upload" stroke="none" stroke-width="1" fill="none" fill-rule="evenodd">
    <g id="Group-3">
      <mask id="mask-2" fill="white">
        <use xlink:href="#path-1"></use>
      </mask>
      <g id="Clip-2"></g>
      <path
        d="M15.0004,15.0002 L15.0004,3.4142 L18.2934,6.7062 C18.6844,7.0972 19.3164,7.0972 19.7074,6.7062 C20.0984,6.3152 20.0984,5.6832 19.7074,5.2922 L14.7074,0.2932 C14.3164,-0.0978 13.6844,-0.0978 13.2934,0.2932 L8.2934,5.2922 C8.0984,5.4872 8.0004,5.7432 8.0004,5.9992 C8.0004,6.2552 8.0984,6.5112 8.2934,6.7062 C8.6844,7.0972 9.3164,7.0972 9.7074,6.7062 L13.0004,3.4142 L13.0004,15.0002 C13.0004,15.5532 13.4474,16.0002 14.0004,16.0002 C14.5534,16.0002 15.0004,15.5532 15.0004,15.0002 M27.0004,12.0002 L27.0004,12.0002 C27.5524,12.0002 28.0004,12.4472 28.0004,13.0002 L28.0004,22.0002 L0.0004,22.0002 L0.0004,13.0002 C0.0004,12.4472 0.4474,12.0002 1.0004,12.0002 C1.5524,12.0002 2.0004,12.4472 2.0004,13.0002 L2.0004,20.0002 L26.0004,20.0002 L26.0004,13.0002 C26.0004,12.4472 26.4474,12.0002 27.0004,12.0002"
        id="Fill-1" fill="#002233" mask="url(#mask-2)"></path>
    </g>
  </g>
</svg>
