<?xml version="1.0" encoding="UTF-8"?>
<svg width="64px" height="64px" viewBox="0 0 64 64" version="1.1" xmlns="http://www.w3.org/2000/svg">
  <!-- Generator: Sketch 60.1 (88133) - https://sketch.com -->
  <title>Desktop/Icon/Education</title>
  <desc>Created with Sketch.</desc>
  <g id="Desktop/Icon/Education" stroke="none" stroke-width="1" fill="none" fill-rule="evenodd">
    <path
      d="M47,26 C48.104,26 49,26.898 49,28 C49,29.102 48.104,30 47,30 C45.896,30 45,29.102 45,28 C45,26.898 45.896,26 47,26 L47,26 Z M50.616,32.76 C52.056,31.664 53,29.95 53,28 C53,24.686 50.314,22 47,22 C43.686,22 41,24.686 41,28 C41,29.95 41.944,31.664 43.384,32.76 L42.21,35.106 C41.716,36.094 42.118,37.294 43.106,37.79 C43.392,37.932 43.698,38 43.998,38 C44.732,38 45.438,37.596 45.79,36.894 L47,34.472 L48.21,36.894 C48.562,37.596 49.268,38 50.002,38 C50.302,38 50.608,37.932 50.894,37.79 C51.882,37.294 52.284,36.094 51.79,35.106 L50.616,32.76 Z M64,44.002 L64,12 C64,10.896 63.106,10 62,10 L2,10 C0.894,10 0,10.896 0,12 L0,52 C0,53.106 0.894,54 2,54 L62,54 C63.106,54 64,53.106 64,52.002 L64,52 C64,50.896 63.106,50 62,50 L4,50 L4,14 L60,14 L60.002,44.002 C60.002,45.106 60.896,46 62,46 C63.106,46 64,45.106 64,44.002 L64,44.002 Z M34.002,29 L14.002,29 C12.896,29 12.002,29.896 12.002,31 C12.002,32.104 12.896,33 14.002,33 L34.002,33 C35.108,33 36.002,32.104 36.002,31 C36.002,29.896 35.108,29 34.002,29 L34.002,29 Z"
      id="Fill-1" fill="#002233"></path>
  </g>
</svg>
