<?xml version="1.0" encoding="UTF-8"?>
<svg width="64px" height="64px" viewBox="0 0 64 64" version="1.1" xmlns="http://www.w3.org/2000/svg">
  <!-- Generator: Sketch 60.1 (88133) - https://sketch.com -->
  <title>Desktop/Icon/ID</title>
  <desc>Created with Sketch.</desc>
  <g id="Desktop/Icon/ID" stroke="none" stroke-width="1" fill="none" fill-rule="evenodd">
    <path
      d="M18,30 L18,30 C19.104,30 20,29.102 20,28 C20,26.898 19.104,26 18,26 C16.898,26 16,26.898 16,28 C16,29.102 16.898,30 18,30 L18,30 Z M0,18 C0,13.588 3.588,10 8,10 L56,10 C60.414,10 64,13.588 64,18 L64,46 C64,50.412 60.414,54 56,54 L8,54 C3.588,54 0,50.412 0,46 C0,44.896 0.896,44 2,44 C3.106,44 4,44.896 4,46 C4,48.206 5.796,50 8,50 L56,50 C58.206,50 60,48.206 60,46 L60,18 C60,15.794 58.206,14 56,14 L8,14 C5.796,14 4,15.794 4,18 L4,36 L10.254,36 C10.718,34.206 11.798,32.664 13.246,31.588 C12.484,30.584 12,29.358 12,28 C12,24.686 14.688,22 18,22 C21.314,22 24,24.686 24,28 C24,29.362 23.516,30.592 22.75,31.598 C24.71,33.056 26,35.372 26,38 C26,39.104 25.106,40 24,40 C22.896,40 22,39.104 22,38 C22,35.794 20.206,34 18,34 C15.796,34 14,35.794 14,38 C14,39.104 13.106,40 12,40 L2,40 C0.896,40 0,39.104 0,38 L0,18 Z M32,30 L52,30 C53.104,30 54,30.896 54,32 C54,33.104 53.104,34 52,34 L32,34 C30.894,34 30,33.104 30,32 C30,30.896 30.894,30 32,30 L32,30 Z"
      id="Fill-1" fill="#002233"></path>
  </g>
</svg>
