<?xml version="1.0" encoding="UTF-8" standalone="no"?>
<svg
   width="270"
   height="400"
   version="1.1"
   id="svg1"
   sodipodi:docname="PassportOval.svg"
   inkscape:version="1.3 (0e150ed6c4, 2023-07-21)"
   xmlns:inkscape="http://www.inkscape.org/namespaces/inkscape"
   xmlns:sodipodi="http://sodipodi.sourceforge.net/DTD/sodipodi-0.dtd"
   xmlns="http://www.w3.org/2000/svg"
   xmlns:svg="http://www.w3.org/2000/svg">
  <defs
     id="defs1" />
  <sodipodi:namedview
     id="namedview1"
     pagecolor="#ffffff"
     bordercolor="#000000"
     borderopacity="0.25"
     inkscape:showpageshadow="2"
     inkscape:pageopacity="0.0"
     inkscape:pagecheckerboard="0"
     inkscape:deskcolor="#d1d1d1"
     inkscape:zoom="4.3740741"
     inkscape:cx="200.04234"
     inkscape:cy="43.552075"
     inkscape:window-width="2560"
     inkscape:window-height="1377"
     inkscape:window-x="1912"
     inkscape:window-y="-8"
     inkscape:window-maximized="1"
     inkscape:current-layer="svg1" />
  <path
     d="m 133.24813,14.236228 c 24.82,-0.0947 50.094,6.2099 70.294,20.678 22.761,16.302 37.686,41.953 45.268,68.962002 10.192,36.305 8.0428,75.107 0.66784,112.09 -7.7788,39.009 -21.336,76.974 -41.289,111.36 -8.263,14.236 -17.757,28.01 -30.24,38.712 -12.484,10.702 -28.28,18.167 -44.7,18.2 -16.363,0.033 -32.141,-7.3191 -44.635996,-17.918 -12.496,-10.598 -22.027,-24.278 -30.304,-38.44 -20.059,-34.321 -33.527003,-72.335 -41.289003,-111.36 -7.3589996,-36.989 -9.5659996,-75.797 0.6679,-112.09 7.6944,-27.288002 22.931003,-53.135002 46.004003,-69.515002 20.053,-14.236 44.992996,-20.584 69.557996,-20.678 z"
     fill="none"
     stroke="#ABB2B9"
     stroke-width="4"
     id="path1" />
</svg>
